<svg width="84" height="93" viewBox="0 0 84 93" fill="none" xmlns="http://www.w3.org/2000/svg">
<path d="M38.0141 11.2841L13.7042 37.5299C13.0583 38.2108 12.7119 39.1263 12.728 39.978L13.353 63.047C13.4007 63.9912 13.8425 64.8032 14.615 65.2979L41.86 81.7627C43.0267 82.4473 44.6186 82.1256 45.6742 81.0365L69.9841 54.7906C70.6301 54.1097 70.9765 53.1943 70.9603 52.3426L70.3353 29.2736C70.2876 28.3293 69.8459 27.5174 69.0733 27.0227L41.8284 10.5578C40.6458 9.82699 39.054 10.1487 38.0141 11.2841Z" fill="url(#paint0_linear_268_20862)"/>
<path d="M68.4033 27.9583C68.3357 28.5724 68.1108 29.2087 67.5876 29.7757L66.5412 30.9095L44.11 54.9917C43.2222 55.9441 41.8837 56.2122 40.9288 55.6625L14.8357 40.2285C13.5364 39.4727 13.4562 37.6065 14.6292 36.3594L21.0813 29.4204L21.6518 28.8309L38.1222 11.1889C39.01 10.2365 40.3485 9.96838 41.2561 10.5406L67.3492 25.9747C68.1172 26.2961 68.4886 27.0712 68.4033 27.9583Z" fill="url(#paint1_linear_268_20862)"/>
<mask id="mask0_268_20862" style="mask-type:luminance" maskUnits="userSpaceOnUse" x="13" y="10" width="56" height="46">
<path d="M14.6055 36.356L38.1887 11.0961C39.0804 10.142 40.421 9.86849 41.375 10.4124L67.4405 25.6869C68.7385 26.4348 68.8125 28.2959 67.6342 29.5452L44.051 54.8051C43.1593 55.7592 41.8187 56.0327 40.8647 55.4888L14.7992 40.2143C13.5487 39.4437 13.4273 37.6053 14.6055 36.356Z" fill="white"/>
</mask>
<g mask="url(#mask0_268_20862)">
<path d="M38.5619 35.4405C39.1921 35.8292 40.0001 35.9201 40.7945 35.8048C40.1436 35.8512 39.527 35.6686 39.0386 35.3714C37.6039 34.5712 37.497 32.7621 38.8129 31.3867C39.5034 30.6303 40.508 30.1484 41.4613 30.0101C40.3509 30.0112 39.1395 30.5391 38.3209 31.4101C37.0682 32.8083 37.1751 34.6175 38.5619 35.4405Z" fill="#5C100B"/>
<path d="M39.0337 35.4644C39.5183 35.759 40.1623 35.8719 40.7759 35.894C41.8623 35.8475 43.0795 35.3696 43.8917 34.5062C45.1498 33.1657 45.0437 31.3725 43.6677 30.5567C43.0425 30.1714 42.2408 30.0814 41.4526 30.1957C40.5068 30.3329 39.51 30.8105 38.825 31.5603C37.5516 32.8554 37.6424 34.6032 39.0337 35.4644Z" fill="#FDECEC"/>
</g>
<path d="M70.5961 30.9185L71.0195 53.7492C71.017 54.0688 70.9042 54.388 70.6502 54.6154L45.4366 81.6685C44.7529 82.4194 43.6517 82.0958 43.6116 81.1597L43.1882 58.3289C43.1907 58.0093 43.3035 57.6901 43.5575 57.4627L68.7711 30.4096C69.4548 29.6587 70.556 29.9823 70.5961 30.9185Z" fill="url(#paint2_linear_268_20862)"/>
<mask id="mask1_268_20862" style="mask-type:luminance" maskUnits="userSpaceOnUse" x="43" y="29" width="29" height="54">
<path d="M70.7004 30.9127L71.0457 53.6879C71.0421 54.0068 70.9281 54.3257 70.673 54.5538L45.337 81.6631C44.6499 82.4155 43.5485 82.0979 43.5116 81.1642L43.1663 58.389C43.1699 58.0701 43.2839 57.7511 43.539 57.5231L68.8751 30.4137C69.5622 29.6613 70.6635 29.9789 70.7004 30.9127Z" fill="white"/>
</mask>
<g mask="url(#mask1_268_20862)">
<path d="M65.8787 56.2736C66.45 55.6856 66.9605 54.9169 67.3764 54.1936C67.0248 54.7813 66.6106 55.3465 66.1188 55.8441C64.8648 57.1784 63.7954 57.4281 63.8077 56.3212C63.7827 55.7565 64.0906 54.8752 64.5707 54.0162C63.9317 55.0561 63.5122 56.0957 63.5355 56.8185C63.5401 57.8125 64.5774 57.6305 65.8787 56.2736Z" fill="#520B05"/>
<path d="M66.0426 55.7934C66.4881 55.3171 66.9505 54.7274 67.3029 54.1379C67.9433 53.0949 68.3637 52.0522 68.3403 51.3272C68.3053 50.2396 67.2811 50.4674 66.0243 51.8057C65.4671 52.4408 64.8928 53.1891 64.5234 53.892C64.0422 54.7535 63.7337 55.6375 63.7588 56.204C63.7142 57.3822 64.7537 57.1997 66.0426 55.7934Z" fill="url(#paint3_linear_268_20862)"/>
<path d="M65.0749 41.6393C65.6465 41.0508 66.1573 40.2815 66.5734 39.5576C66.2216 40.1458 65.8072 40.7115 65.3151 41.2095C64.0603 42.5449 62.9903 42.7948 63.0027 41.687C62.9776 41.1218 63.2857 40.2397 63.7983 39.3122C63.1589 40.3529 62.7392 41.3934 62.7625 42.1168C62.7501 43.2247 63.8201 42.9747 65.0749 41.6393Z" fill="#520B05"/>
<path d="M65.3031 41.1837C65.7484 40.7076 66.2107 40.1181 66.563 39.5288C67.2032 38.4862 67.6234 37.4438 67.6001 36.7191C67.5651 35.632 66.5411 35.8597 65.2847 37.1975C64.7124 37.7871 64.201 38.5577 63.7843 39.283C63.3032 40.1443 62.9948 41.028 62.9877 41.6622C62.9601 42.7267 63.9993 42.5443 65.3031 41.1837Z" fill="url(#paint4_linear_268_20862)"/>
<path d="M49.0203 74.8599C49.5917 74.2717 50.1024 73.5027 50.5184 72.7791C50.1666 73.3671 49.7524 73.9325 49.2605 74.4302C48.0061 75.765 46.9364 76.0148 46.9488 74.9075C46.9238 74.3426 47.2317 73.461 47.712 72.6017C47.0728 73.6419 46.6533 74.6819 46.6765 75.405C46.6963 76.4445 47.7811 76.2398 49.0203 74.8599Z" fill="#520B05"/>
<path d="M49.2454 74.4063C49.6908 73.93 50.1532 73.3405 50.5055 72.7511C51.1459 71.7082 51.5662 70.6656 51.5428 69.9407C51.5078 68.8533 50.4837 69.0811 49.2271 70.4192C48.6699 71.0541 48.0957 71.8024 47.7263 72.5051C47.2452 73.3666 46.9367 74.2505 46.9618 74.8168C46.9172 75.9949 47.9413 75.7671 49.2454 74.4063Z" fill="url(#paint5_linear_268_20862)"/>
<path d="M48.265 60.2045C48.8366 59.6159 49.3475 58.8464 49.7637 58.1223C49.4118 58.7107 48.9974 59.2765 48.5052 59.7746C47.2503 61.1102 46.1801 61.3602 46.1925 60.2522C46.1674 59.6869 46.4755 58.8046 46.9882 57.8769C46.3487 58.9178 45.929 59.9585 45.9523 60.6821C45.9399 61.7901 46.9779 61.608 48.265 60.2045Z" fill="#520B05"/>
<path d="M48.445 59.7705C48.8904 59.2942 49.3528 58.7046 49.7052 58.1152C50.3456 57.0723 50.7659 56.0297 50.7425 55.3048C50.7075 54.2174 49.6834 54.4452 48.4267 55.7833C47.8543 56.373 47.3428 57.1438 46.926 57.8693C46.4448 58.7307 46.1363 59.6146 46.1293 60.249C46.1168 61.3591 47.2036 61.1539 48.445 59.7705Z" fill="url(#paint6_linear_268_20862)"/>
</g>
<path d="M43.9703 57.0769L44.4225 80.6073C44.4322 81.4642 43.4667 82.0855 42.829 81.6892L14.1245 64.6667C13.8533 64.5266 13.6953 64.2249 13.7134 63.9471L13.2611 40.4167C13.2514 39.5598 14.2169 38.9385 14.8547 39.3348L43.5591 56.3573C43.8303 56.4973 43.9726 56.7527 43.9703 57.0769Z" fill="url(#paint7_linear_268_20862)"/>
<mask id="mask2_268_20862" style="mask-type:luminance" maskUnits="userSpaceOnUse" x="13" y="38" width="32" height="45">
<path d="M44.0405 56.5251L44.4418 82.6239L13.6404 64.4986L13.1906 38.423L44.0405 56.5251Z" fill="white"/>
</mask>
<g mask="url(#mask2_268_20862)">
<path d="M39.0465 76.2134C39.6893 76.6082 40.3025 76.7474 40.7398 76.7006C40.3356 76.6776 39.8199 76.4919 39.3217 76.19C37.8584 75.3773 36.6946 73.7741 36.658 72.6584C36.6319 72.0773 36.9594 71.7052 37.5099 71.6584C36.8148 71.6123 36.3096 71.9612 36.3183 72.6585C36.4194 73.7975 37.5831 75.4007 39.0465 76.2134Z" fill="#872723"/>
<path d="M39.296 76.2687C39.7893 76.5687 40.2998 76.7532 40.6999 76.7761C41.388 76.822 41.8881 76.4753 41.8795 75.7825C41.8433 74.674 40.6913 73.0811 39.2426 72.2735C38.6063 71.8812 37.9992 71.743 37.5508 71.7432C37.0058 71.7897 36.6661 72.1131 36.7075 72.7367C36.6799 73.8221 37.8319 75.415 39.296 76.2687Z" fill="url(#paint8_linear_268_20862)"/>
<path d="M38.2596 61.627C38.9027 62.0219 39.5163 62.161 39.9537 62.1143C39.5494 62.0913 39.0823 61.8823 38.535 61.6036C37.0709 60.7906 35.891 59.1405 35.87 58.071C35.8439 57.4897 36.2203 57.0943 36.7711 57.0475C36.06 56.9548 35.5702 57.3504 35.579 58.0479C35.6156 59.1639 36.8287 60.7442 38.2596 61.627Z" fill="#872723"/>
<path d="M38.5412 61.6128C39.0343 61.9127 39.5446 62.0972 39.9446 62.1201C40.648 62.2121 41.1325 61.8193 41.1239 61.1267C41.0877 60.0185 39.936 58.4259 38.4878 57.6186C37.8517 57.2264 37.2448 57.0881 36.8121 57.1345C36.2673 57.181 35.9276 57.5044 35.9207 58.1508C35.9414 59.2129 37.093 60.8054 38.5412 61.6128Z" fill="url(#paint9_linear_268_20862)"/>
<path d="M28.7798 62.5209C29.4226 62.9157 30.0358 63.0549 30.4888 63.0546C30.0846 63.0316 29.569 62.8459 29.0707 62.544C27.6074 61.7313 26.4437 60.1281 26.4071 59.0124C26.3809 58.4313 26.7572 58.0359 27.2589 58.0124C26.5638 57.9663 26.0586 58.3152 26.0673 59.0125C26.137 60.0585 27.3008 61.6617 28.7798 62.5209Z" fill="#872723"/>
<path d="M29.0133 62.5266C29.5064 62.8265 30.0167 63.011 30.4167 63.0339C31.1047 63.0797 31.6047 62.7331 31.5961 62.0404C31.5599 60.9321 30.4082 59.3395 28.9599 58.532C28.3236 58.1398 27.7167 58.0016 27.284 58.048C26.7391 58.0944 26.3994 58.4178 26.4408 59.0413C26.4132 60.1265 27.5649 61.7191 29.0133 62.5266Z" fill="url(#paint10_linear_268_20862)"/>
<path d="M19.2525 63.4342C19.8954 63.829 20.5086 63.9681 20.9459 63.9214C20.5417 63.8984 20.026 63.7127 19.5278 63.4108C18.0644 62.598 16.9006 60.9948 16.864 59.8791C16.8378 59.298 17.1653 58.9259 17.7159 58.8791C17.0208 58.833 16.5155 59.1819 16.5243 59.8792C16.6253 61.0182 17.8379 62.5982 19.2525 63.4342Z" fill="#872723"/>
<path d="M19.5005 63.4893C19.9938 63.7893 20.5043 63.9738 20.9044 63.9967C21.5925 64.0426 22.0927 63.6959 22.0841 63.0031C22.0479 61.8945 20.8958 60.3016 19.4471 59.494C18.8107 59.1017 18.2036 58.9634 17.7552 58.9637C17.2102 59.0101 16.8705 59.3336 16.9118 59.9571C16.8842 61.0426 18.0846 62.6124 19.5005 63.4893Z" fill="url(#paint11_linear_268_20862)"/>
<path d="M18.4958 48.7797C19.139 49.1746 19.7524 49.3137 20.1899 49.267C19.7856 49.244 19.3185 49.035 18.7712 48.7563C17.3072 47.9434 16.1272 46.2933 16.1063 45.2239C16.0801 44.6426 16.4566 44.2472 17.0073 44.2004C16.2962 44.1078 15.8065 44.5033 15.8152 45.2008C15.8676 46.3632 17.0318 47.9668 18.4958 48.7797Z" fill="#872723"/>
<path d="M18.7463 48.832C19.2394 49.132 19.7497 49.3164 20.1497 49.3393C20.8531 49.4313 21.3375 49.0386 21.3289 48.3459C21.2927 47.2377 20.1411 45.6452 18.6929 44.8378C18.0568 44.4456 17.4499 44.3074 17.0172 44.3538C16.4724 44.4002 16.1327 44.7236 16.1258 45.3701C16.131 46.386 17.2826 47.9785 18.7463 48.832Z" fill="url(#paint12_linear_268_20862)"/>
</g>
<path d="M68.0134 28.1432C67.951 28.7585 67.7322 29.3944 67.2158 29.9575L66.183 31.0836C52.844 30.4995 31.6456 29.5718 20.8898 29.0486L21.4531 28.4634L37.7115 10.9442C38.5878 9.99845 39.9184 9.74409 40.8268 10.3281L66.9322 26.0958C67.7152 26.4726 68.0913 27.2541 68.0134 28.1432Z" fill="url(#paint13_linear_268_20862)"/>
<defs>
<linearGradient id="paint0_linear_268_20862" x1="71.2904" y1="41.6471" x2="12.4592" y2="42.9064" gradientUnits="userSpaceOnUse">
<stop stop-color="#B7180A"/>
<stop offset="0.5203" stop-color="#4F0101"/>
<stop offset="0.9997" stop-color="#A81307"/>
</linearGradient>
<linearGradient id="paint1_linear_268_20862" x1="39.7336" y1="12.3788" x2="48.152" y2="51.1571" gradientUnits="userSpaceOnUse">
<stop stop-color="#DC350B"/>
<stop offset="1" stop-color="#B7180A"/>
</linearGradient>
<linearGradient id="paint2_linear_268_20862" x1="59.0029" y1="40.0115" x2="59.8794" y2="74.5402" gradientUnits="userSpaceOnUse">
<stop offset="0.00030185" stop-color="#9F1407"/>
<stop offset="0.96" stop-color="#510102"/>
</linearGradient>
<linearGradient id="paint3_linear_268_20862" x1="21.7531" y1="147.832" x2="72.258" y2="6.61934" gradientUnits="userSpaceOnUse">
<stop/>
<stop offset="0.9997" stop-color="white"/>
</linearGradient>
<linearGradient id="paint4_linear_268_20862" x1="15.3127" y1="145.232" x2="65.7915" y2="4.06917" gradientUnits="userSpaceOnUse">
<stop/>
<stop offset="0.9997" stop-color="white"/>
</linearGradient>
<linearGradient id="paint5_linear_268_20862" x1="15.1249" y1="144.802" x2="65.6209" y2="3.60989" gradientUnits="userSpaceOnUse">
<stop/>
<stop offset="0.9997" stop-color="white"/>
</linearGradient>
<linearGradient id="paint6_linear_268_20862" x1="8.67054" y1="142.237" x2="59.1672" y2="1.04355" gradientUnits="userSpaceOnUse">
<stop/>
<stop offset="0.9997" stop-color="white"/>
</linearGradient>
<linearGradient id="paint7_linear_268_20862" x1="15.115" y1="41.1671" x2="45.3807" y2="78.892" gradientUnits="userSpaceOnUse">
<stop offset="0.00060369" stop-color="#B11A09"/>
<stop offset="0.9997" stop-color="#770804"/>
</linearGradient>
<linearGradient id="paint8_linear_268_20862" x1="95.588" y1="120.158" x2="-0.771999" y2="39.7795" gradientUnits="userSpaceOnUse">
<stop/>
<stop offset="0.9997" stop-color="white"/>
</linearGradient>
<linearGradient id="paint9_linear_268_20862" x1="102.116" y1="111.471" x2="5.78091" y2="31.1199" gradientUnits="userSpaceOnUse">
<stop/>
<stop offset="0.9997" stop-color="white"/>
</linearGradient>
<linearGradient id="paint10_linear_268_20862" x1="97.7699" y1="116.596" x2="1.42711" y2="36.2371" gradientUnits="userSpaceOnUse">
<stop/>
<stop offset="0.9997" stop-color="white"/>
</linearGradient>
<linearGradient id="paint11_linear_268_20862" x1="93.4361" y1="121.733" x2="-2.92665" y2="41.3521" gradientUnits="userSpaceOnUse">
<stop/>
<stop offset="0.9997" stop-color="white"/>
</linearGradient>
<linearGradient id="paint12_linear_268_20862" x1="99.9551" y1="113.039" x2="3.62048" y2="32.6889" gradientUnits="userSpaceOnUse">
<stop/>
<stop offset="0.9997" stop-color="white"/>
</linearGradient>
<linearGradient id="paint13_linear_268_20862" x1="17.025" y1="18.5662" x2="66.0524" y2="27.6697" gradientUnits="userSpaceOnUse">
<stop stop-color="white" stop-opacity="0.5"/>
<stop offset="1" stop-color="white" stop-opacity="0"/>
</linearGradient>
</defs>
</svg>
