<svg width="177" height="187" viewBox="0 0 177 187" fill="none" xmlns="http://www.w3.org/2000/svg">
<path d="M169.35 34.8519C175.271 36.9542 178.373 42.7003 176.117 47.7457L116.905 181.028C114.65 186.073 108.024 188.316 102.103 186.214L7.505 152.297C1.58385 150.195 -1.51771 144.449 0.737969 139.404L59.9495 6.12123C62.2052 1.07584 68.8313 -1.16655 74.7524 0.935698L169.35 34.8519Z" fill="url(#paint0_linear_268_22283)"/>
<mask id="mask0_268_22283" style="mask-type:luminance" maskUnits="userSpaceOnUse" x="0" y="0" width="177" height="187">
<path d="M169.351 34.8509C175.272 36.9532 178.374 42.6993 176.118 47.7447L116.906 181.027C114.651 186.072 108.025 188.315 102.104 186.213L7.50598 152.296C1.58482 150.194 -1.51673 144.448 0.738946 139.403L59.9505 6.12026C62.2062 1.07487 68.8322 -1.16752 74.7534 0.934721L169.351 34.8509Z" fill="white"/>
</mask>
<g mask="url(#mask0_268_22283)">
<path d="M97.4533 75.3535C88.8535 80.3989 79.1259 84.4633 68.6934 87.8269C74.4735 96.7964 78.139 105.766 79.9718 114.736C88.4305 108.849 97.8762 104.505 108.732 102.262C103.233 92.5919 99.286 83.6223 97.4533 75.3535Z" fill="#DE1A22"/>
<path d="M74.332 21.1143L71.6534 20.1333C71.5124 20.1333 71.3715 19.9931 71.5124 19.853C71.5124 19.853 71.5124 19.853 71.6534 19.7128L75.7418 14.6675L74.755 20.834C74.755 20.9742 74.755 20.9742 74.755 20.9742C74.473 21.1143 74.473 21.1143 74.332 21.1143ZM76.4467 12.9857C75.8828 12.8455 75.4599 12.9857 75.0369 13.4061L67.283 22.5158C66.8601 22.9363 66.5781 23.2166 66.5781 23.3567C66.2962 23.637 66.0142 23.637 65.7323 23.4969L65.4503 23.3567C65.4503 23.2166 65.3093 23.2166 65.3093 23.2166C64.8864 23.0764 64.6044 23.2166 64.3225 23.637C64.1815 24.0575 64.1815 24.3378 64.7454 24.6181C64.8864 24.6181 65.1683 24.7582 65.4503 24.7582L66.1552 24.8984C66.2962 24.8984 66.5781 25.0385 67.0011 25.1787C67.424 25.3188 67.565 25.459 67.706 25.459L68.5519 25.8794C68.6928 26.0196 68.8338 26.0196 68.9748 26.0196C69.5387 26.1597 69.8207 26.0196 69.9617 25.5991C70.1026 25.1787 70.1026 24.7582 69.5387 24.6181C69.3977 24.6181 69.2568 24.4779 69.1158 24.4779C68.8338 24.4779 68.6928 24.3378 68.5519 24.3378C68.1289 24.1976 67.9879 23.9173 68.1289 23.4969C68.1289 23.3567 68.2699 23.2166 68.4109 23.0764L69.5387 21.6749C69.8207 21.2545 70.1026 21.1143 70.2436 20.9742C70.3846 20.9742 70.5256 20.9742 70.8075 20.9742L73.9091 22.0954C74.1911 22.2355 74.332 22.2355 74.332 22.3757C74.332 22.5158 74.332 22.656 74.332 22.7961L74.0501 25.0385C74.0501 25.3188 73.9091 25.5991 73.9091 25.5991C73.7681 26.0196 73.4862 26.0196 73.0632 25.8794C72.9222 25.8794 72.7813 25.7393 72.6403 25.7393C72.4993 25.5991 72.3583 25.5991 72.2173 25.5991C71.6534 25.459 71.3715 25.5991 71.0895 26.0196C70.9485 26.44 70.9485 26.8605 71.5124 27.0006C71.6534 27.0006 71.7944 27.1408 72.0764 27.1408C73.0632 27.4211 73.7681 27.5612 74.1911 27.7014C74.473 27.8415 75.0369 28.1218 75.7418 28.4021C75.8828 28.5423 76.1648 28.5423 76.1648 28.6824C76.5877 28.8226 76.8697 28.6824 77.1516 28.262C77.2926 27.8415 77.2926 27.5612 76.8697 27.4211L76.3058 27.2809C76.3058 27.2809 76.1648 27.2809 76.0238 27.2809C75.7418 27.1408 75.6009 27.0006 75.4599 26.7203C75.4599 26.44 75.4599 26.0196 75.4599 25.3188L76.8697 14.1069C77.1516 13.5463 76.8697 13.1258 76.4467 12.9857Z" fill="#DE1A22"/>
<path d="M69.2558 29.3838C66.5771 30.9254 63.6166 32.1868 60.374 33.308C62.2068 36.111 63.3346 38.914 63.8985 41.717C66.5771 39.895 69.3967 38.4935 72.7803 37.7928C70.9475 34.8496 69.8197 32.0466 69.2558 29.3838Z" fill="#DE1A22"/>
<path d="M101.399 172.477L102.386 166.311C102.386 166.171 102.386 166.171 102.386 166.171C102.386 166.03 102.527 166.03 102.668 166.03L105.347 167.011C105.488 167.011 105.629 167.152 105.488 167.292C105.488 167.292 105.488 167.292 105.347 167.432L101.399 172.477ZM100.694 158.042C100.271 157.902 99.9893 158.042 99.7074 158.462C99.5664 158.883 99.5664 159.163 99.9893 159.303L100.553 159.443C100.553 159.443 100.694 159.443 100.835 159.443C101.117 159.583 101.258 159.724 101.399 160.004C101.399 160.284 101.399 160.705 101.399 161.405L99.9893 172.617C99.8483 173.178 100.13 173.598 100.694 173.879C101.258 174.019 101.681 173.879 102.104 173.458L109.858 164.349C110.281 163.928 110.563 163.648 110.563 163.508C110.845 163.227 111.127 163.227 111.409 163.368L111.691 163.508C111.691 163.648 111.832 163.648 111.832 163.648C112.255 163.788 112.537 163.648 112.818 163.227C112.959 162.807 112.959 162.527 112.396 162.246C112.255 162.246 111.973 162.106 111.691 162.106L110.986 161.966C110.845 161.966 110.563 161.826 110.14 161.686C109.717 161.546 109.576 161.405 109.435 161.405L108.589 160.985C108.448 160.845 108.307 160.845 108.166 160.845C107.602 160.705 107.32 160.845 107.179 161.265C107.038 161.686 107.038 162.106 107.602 162.246C107.743 162.246 107.884 162.386 108.025 162.386C108.307 162.386 108.448 162.527 108.589 162.527C109.012 162.667 109.153 162.947 109.012 163.368C109.012 163.508 108.871 163.648 108.73 163.788L107.461 165.189C107.179 165.61 106.897 165.75 106.756 165.89C106.615 165.89 106.474 165.89 106.192 165.89L103.091 164.629C102.809 164.489 102.668 164.489 102.668 164.349C102.668 164.208 102.668 164.068 102.668 163.928L102.95 161.686C102.95 161.405 103.091 161.125 103.091 161.125C103.232 160.705 103.514 160.705 103.937 160.845C104.078 160.845 104.219 160.985 104.36 160.985C104.501 161.125 104.642 161.125 104.783 161.125C105.347 161.265 105.629 161.125 105.91 160.705C106.051 160.284 106.051 159.864 105.488 159.724C105.347 159.724 105.206 159.583 104.924 159.583C103.937 159.303 103.232 159.163 102.809 159.023C102.386 158.883 101.963 158.602 101.258 158.322C100.976 158.182 100.835 158.182 100.694 158.042Z" fill="#DE1A22"/>
<path d="M113.243 145.287C110.564 147.109 107.745 148.51 104.361 149.211C106.053 152.154 107.181 154.957 107.886 157.62C110.564 156.078 113.525 154.817 116.768 153.696C114.935 150.893 113.807 148.09 113.243 145.287Z" fill="#DE1A22"/>
</g>
<defs>
<linearGradient id="paint0_linear_268_22283" x1="189.821" y1="27.0142" x2="7.85833" y2="147.849" gradientUnits="userSpaceOnUse">
<stop stop-color="white"/>
<stop offset="1" stop-color="#9E9D9D"/>
</linearGradient>
</defs>
</svg>
