<svg width="150" height="151" viewBox="0 0 150 151" fill="none" xmlns="http://www.w3.org/2000/svg">
<path d="M143.117 1.2983C144.306 1.02977 145.363 0.895508 146.287 0.895508C147.212 0.895508 147.872 1.16403 148.401 1.56682C148.929 1.9696 149.193 2.64091 149.326 3.31222C149.326 3.98353 149.193 4.92337 148.797 5.8632L87.9017 139.722C87.2412 141.333 86.1845 142.81 85.1277 144.153C83.9389 145.495 82.75 146.704 81.297 147.778C79.9761 148.852 78.523 149.657 77.07 150.194C75.6169 150.731 74.296 151 72.9751 151L3.22929 149.792C2.30463 149.792 1.64415 149.523 1.11578 148.986C0.587398 148.449 0.323234 147.778 0.191139 146.972C0.0590452 146.167 0.191123 145.092 0.587406 144.018C0.851595 142.944 1.37999 141.736 2.17255 140.393L67.8234 27.6136C68.3518 26.6738 69.0122 25.8682 69.8048 25.0626C70.5974 24.257 71.39 23.4515 72.3146 22.6459C73.2393 21.9746 74.1639 21.3033 75.0886 20.7662C76.0132 20.2292 76.9379 19.8264 77.8625 19.5579L143.117 1.2983Z" fill="white"/>
<path d="M74.4336 61.7167C73.3768 61.851 72.3201 62.2538 71.2633 62.7908C70.2066 63.3279 69.1498 63.9992 68.0931 64.6705C67.0363 65.4761 66.1116 66.2816 65.3191 67.2215C64.5265 68.1613 63.7339 69.1011 63.2056 70.1752C62.6772 71.2493 62.2809 72.1892 62.0167 72.9947C61.7525 73.9346 61.7525 74.7401 61.8846 75.5457C62.0167 76.3513 62.2809 77.1568 62.5451 77.9624C62.9414 78.768 63.3377 79.7078 63.734 80.6476C64.2623 81.5875 64.6586 82.6616 65.0549 83.6014C65.4512 84.5412 65.7153 85.4811 65.8474 86.4209C65.9795 87.3607 66.1116 88.3005 66.1116 89.2404C66.1116 90.1802 65.9795 91.12 65.8474 92.1941C66.7721 91.12 67.6968 90.0459 68.7535 88.9719C69.8103 87.8978 70.9991 86.8237 72.3201 85.6153C73.641 84.5412 75.094 83.3329 76.5471 82.1245C78.1322 80.9161 79.7174 79.7078 81.5667 78.3652C83.416 77.0226 85.0011 75.8142 86.4541 74.7401C87.9072 73.666 89.2281 72.5919 90.2849 71.5178C91.4737 70.4438 92.3984 69.5039 93.191 68.4298C93.9835 67.3557 94.7761 66.4159 95.3045 65.2076C95.8329 64.1335 96.097 63.0594 96.2291 62.2538C96.2291 61.314 96.097 60.6427 95.7007 60.1056C95.3045 59.5686 94.644 59.1658 93.8514 58.8973C93.0589 58.6287 92.1342 58.6287 90.9453 58.763C90.9453 58.763 90.9454 58.763 90.8133 58.763C90.8133 58.763 90.8133 58.763 90.6812 58.763C90.6812 58.763 90.6812 58.763 90.5491 58.763C90.5491 58.763 90.5491 58.763 90.417 58.763C89.3602 58.8973 88.3035 59.3 87.3788 59.7028C86.4542 60.1056 85.3974 60.6426 84.4727 61.314C83.5481 61.9853 82.6234 62.6566 81.6987 63.5964C80.7741 64.402 79.8495 65.3418 78.9248 66.4159C79.0569 65.4761 79.0569 64.6705 78.9248 63.8649C78.7927 63.1936 78.5285 62.6566 78.1322 62.2538C77.7359 61.851 77.2076 61.5825 76.5471 61.4482C75.8866 61.314 74.962 61.314 73.9052 61.5825C74.5657 61.7168 74.5657 61.7167 74.4336 61.7167Z" fill="#7B0F13"/>
<path d="M74.962 31.1046L73.2447 31.5074L76.5471 27.211L75.2261 31.1046C75.094 31.1046 75.0941 31.1046 74.962 31.1046ZM77.2075 25.8684C77.0754 25.8684 77.0755 25.8684 76.9434 26.0027C76.8113 26.0027 76.8113 26.1369 76.6792 26.1369C76.5471 26.1369 76.5471 26.2712 76.415 26.4054C76.2829 26.5397 76.2829 26.5397 76.1508 26.674L69.9424 34.7297C69.8103 34.8639 69.8103 34.8639 69.6782 34.9982C69.6782 35.1324 69.5461 35.1324 69.5461 35.2667L69.414 35.401C69.414 35.401 69.414 35.5352 69.2819 35.5352L69.1498 35.6695L69.0177 35.8037C69.0177 35.8037 68.8856 35.8037 68.8856 35.938H68.7535H68.6214C68.6214 35.938 68.4893 35.938 68.4893 36.0723L68.3572 36.2065L68.2251 36.3408C68.2251 36.4751 68.093 36.4751 68.093 36.6093C68.093 36.7436 67.9609 36.7436 67.9609 36.8778V37.0121C67.9609 37.0121 67.9609 37.0121 68.093 37.0121H68.2251C68.2251 37.0121 68.2252 37.0121 68.3572 37.0121C68.3572 37.0121 68.3572 37.0121 68.4893 37.0121H68.6214H68.7535L69.2819 36.8778C69.2819 36.8778 69.2819 36.8778 69.414 36.8778H69.5461H69.6782H69.8102H69.9424H70.0745H70.2066C70.2066 36.8778 70.2066 36.8778 70.3387 36.8778H70.867C70.9991 36.8778 70.9991 36.8778 71.1312 36.7436C71.2633 36.7436 71.2633 36.6093 71.3954 36.6093C71.5275 36.6093 71.5275 36.475 71.5275 36.475C71.5275 36.3408 71.6596 36.3408 71.6596 36.2065C71.6596 36.0723 71.7917 36.0723 71.7917 35.938V35.8037C71.7917 35.8037 71.7917 35.8037 71.6596 35.8037H71.5275C71.5275 35.8037 71.5275 35.8037 71.3954 35.8037C71.3954 35.8037 71.3954 35.8037 71.2633 35.8037C71.2633 35.8037 71.2633 35.8037 71.1312 35.8037C71.1312 35.8037 71.1312 35.8037 70.9991 35.8037C70.9991 35.8037 70.9991 35.8037 70.867 35.8037C70.867 35.8037 70.867 35.8037 70.7349 35.8037C70.6028 35.8037 70.6028 35.8037 70.6028 35.8037C70.6028 35.8037 70.6028 35.8037 70.4707 35.8037V35.6695C70.4707 35.6695 70.4707 35.5352 70.6028 35.401C70.6028 35.401 70.6028 35.401 70.6028 35.2667C70.6028 35.2667 70.6028 35.2667 70.6028 35.1324C70.6028 35.1324 70.6028 35.1324 70.6028 34.9982C70.6028 34.9982 70.6028 34.9982 70.6028 34.8639L71.5275 33.6556C71.5275 33.5213 71.6596 33.5213 71.6596 33.387C71.6596 33.2528 71.7917 33.2528 71.7917 33.2528L71.9238 33.1185C71.9238 33.1185 71.9238 33.1185 72.0559 32.9843C72.0559 32.9843 72.0559 32.9843 72.188 32.9843C72.3201 32.9843 72.188 32.9843 72.3201 32.9843C72.3201 32.9843 72.32 32.9843 72.4521 32.9843C72.4521 32.9843 72.4521 32.9843 72.5842 32.9843L74.4335 32.4472H74.5656C74.5656 32.4472 74.5657 32.4472 74.6978 32.4472C74.6978 32.4472 74.6978 32.4472 74.6978 32.5815C74.6978 32.5815 74.6978 32.5815 74.6978 32.7157L74.3015 34.0584V34.1926V34.3269C74.3015 34.3269 74.3015 34.3269 74.3015 34.4611C74.3015 34.5954 74.1694 34.5954 74.1694 34.5954L74.0373 34.7297L73.9052 34.8639H73.7731C73.7731 34.8639 73.7731 34.8639 73.641 34.8639C73.641 34.8639 73.641 34.8639 73.5089 34.8639C73.5089 34.8639 73.5089 34.8639 73.3768 34.8639C73.3768 34.8639 73.3768 34.8639 73.2447 34.8639C73.1126 34.8639 73.1126 34.8639 72.9805 34.9982C72.8484 34.9982 72.8484 35.1324 72.7163 35.1324L72.5842 35.2667C72.5842 35.401 72.4521 35.401 72.4521 35.5352C72.4521 35.6695 72.3201 35.6695 72.3201 35.8037V35.938C72.3201 35.938 72.32 35.938 72.4521 35.938H72.5842C72.5842 35.938 72.5842 35.938 72.7163 35.938C72.7163 35.938 72.7163 35.938 72.8484 35.938H72.9805C73.1126 35.938 73.2447 35.8037 73.3768 35.8037C73.5089 35.8037 73.641 35.6695 73.7731 35.6695C73.9052 35.6695 74.0373 35.6695 74.0373 35.5352C74.1694 35.5352 74.1694 35.5352 74.3015 35.5352H74.4335C74.5656 35.5352 74.5657 35.5352 74.6978 35.5352C74.8298 35.5352 74.8299 35.5352 74.962 35.5352C75.0941 35.5352 75.094 35.5352 75.2261 35.5352C75.2261 35.5352 75.2261 35.5352 75.3582 35.5352C75.3582 35.5352 75.3582 35.5352 75.4903 35.5352C75.4903 35.5352 75.4903 35.5352 75.6224 35.5352C75.7545 35.5352 75.7545 35.5352 75.7545 35.401L75.8866 35.2667L76.0187 35.1324C76.0187 34.9982 76.1508 34.9982 76.1508 34.8639C76.1508 34.7296 76.2829 34.7297 76.2829 34.5954V34.4611C76.2829 34.4611 76.2829 34.4611 76.1508 34.4611H76.0187L75.7545 34.5954H75.6224C75.6224 34.5954 75.6224 34.5954 75.4903 34.5954C75.4903 34.5954 75.4903 34.5954 75.4903 34.4611V34.3269V34.1926C75.4903 34.0583 75.4903 34.0583 75.4903 33.9241C75.4903 33.7898 75.4903 33.7898 75.6224 33.6556L77.868 26.674C77.868 26.5397 77.868 26.5397 77.868 26.4054V26.2712C77.868 26.2712 77.868 26.2712 77.7359 26.1369C77.4717 25.7341 77.3396 25.7341 77.2075 25.8684Z" fill="#7B0F13"/>
<path d="M67.4337 40.2347C67.1695 40.2347 66.9053 40.369 66.6411 40.5033C66.3769 40.6375 66.1127 40.7718 65.8485 41.0403C65.5843 41.1746 65.3201 41.4431 65.188 41.7116C64.9239 41.9802 64.7918 42.1144 64.6597 42.3829C64.5276 42.6515 64.3955 42.7857 64.3955 43.0542C64.3955 43.1885 64.3955 43.457 64.3955 43.5913C64.3955 43.7255 64.5276 43.9941 64.5276 44.1283C64.6597 44.2626 64.6597 44.5311 64.7918 44.6654C64.9239 44.7996 65.056 45.0682 65.056 45.2024C65.1881 45.3367 65.188 45.6052 65.188 45.7395C65.188 45.8737 65.3201 46.1423 65.3201 46.2765C65.3201 46.4108 65.3201 46.6793 65.3201 46.8136C65.5843 46.545 65.7164 46.2765 65.9806 46.1423C66.2448 46.008 66.509 45.6052 66.7732 45.3367C67.0374 45.0682 67.4336 44.7996 67.8299 44.5311C68.2262 44.2626 68.6225 43.9941 69.0188 43.5913C69.4151 43.3228 69.8114 43.0542 70.2076 42.7857C70.6039 42.5172 70.8681 42.2487 71.1323 41.9801C71.3965 41.7116 71.6607 41.5774 71.7928 41.3088C71.9248 41.0403 72.1891 40.9061 72.3212 40.6375C72.4533 40.369 72.5853 40.1005 72.5853 39.9662C72.5853 39.832 72.5853 39.5634 72.4532 39.4292C72.3211 39.2949 72.1891 39.1606 72.057 39.1606C71.9249 39.1606 71.6607 39.1606 71.3965 39.1606C71.1323 39.1606 70.8681 39.2949 70.736 39.4292C70.4718 39.5634 70.3397 39.6977 70.0755 39.832C69.8114 39.9662 69.6793 40.1005 69.4151 40.369C69.1509 40.6375 69.0188 40.7718 68.7546 41.0403C68.7546 40.7718 68.7546 40.6375 68.7546 40.5033C68.7546 40.369 68.6225 40.2348 68.6225 40.1005C68.4904 39.9662 68.3583 39.9662 68.2262 39.9662C67.83 40.1005 67.6978 40.2347 67.4337 40.2347Z" fill="#7B0F13"/>
<path d="M74.4321 136.902L76.2814 130.189C76.2814 130.189 76.2814 130.189 76.2814 130.055C76.2814 130.055 76.2814 130.055 76.2814 129.92C76.2814 129.92 76.2814 129.92 76.4135 129.92C76.4135 129.92 76.4135 129.92 76.5456 129.92L78.7912 129.786C78.7912 129.786 78.7912 129.786 78.9233 129.786C78.9233 129.786 78.9233 129.786 78.9233 129.92L74.4321 136.902ZM76.2814 122.805C76.1493 122.805 76.1493 122.805 76.0172 122.805C75.8851 122.805 75.8851 122.939 75.753 122.939C75.6209 123.073 75.6209 123.073 75.4888 123.207C75.3567 123.342 75.3567 123.476 75.2246 123.61C75.2246 123.744 75.0925 123.879 75.0925 123.879C75.0925 124.013 75.0925 124.013 75.0925 124.147C75.0925 124.147 75.0925 124.281 75.2246 124.281C75.2246 124.281 75.3567 124.281 75.4888 124.281L75.8851 124.147H76.0172H76.1493C76.1493 124.147 76.1493 124.147 76.2814 124.281V124.416C76.2814 124.416 76.2814 124.55 76.2814 124.684C76.2814 124.819 76.2814 124.819 76.2814 124.953C76.2814 125.087 76.2814 125.221 76.1493 125.356C76.1493 125.49 76.0172 125.624 76.0172 125.893L72.8469 137.708C72.8469 137.842 72.7148 137.976 72.7148 138.11C72.7148 138.245 72.7148 138.379 72.7148 138.379C72.7148 138.513 72.8469 138.513 72.8469 138.513C72.979 138.513 72.979 138.513 73.1111 138.513C73.2432 138.513 73.3753 138.513 73.5074 138.379C73.6395 138.379 73.7716 138.245 73.9037 138.245C74.0358 138.11 74.1679 138.11 74.3 137.976C74.4321 137.842 74.5642 137.708 74.6963 137.573L83.2824 125.221C83.4145 125.087 83.5466 124.953 83.5466 124.819C83.5466 124.684 83.6787 124.55 83.8108 124.55C83.9428 124.416 83.9429 124.416 83.9429 124.281L84.075 124.147C84.207 124.013 84.207 124.013 84.3391 123.879C84.4712 123.879 84.4712 123.744 84.6033 123.744C84.7354 123.744 84.7354 123.61 84.8675 123.61C84.9996 123.61 84.9996 123.61 85.1317 123.61H85.2638C85.3959 123.61 85.3959 123.61 85.528 123.61C85.6601 123.61 85.6601 123.476 85.7922 123.476C85.9243 123.476 85.9243 123.342 86.0564 123.207C86.1885 123.073 86.1884 122.939 86.3205 122.805C86.3205 122.67 86.4526 122.536 86.4526 122.402C86.4526 122.268 86.4526 122.268 86.4526 122.133C86.4526 122.133 86.4526 121.999 86.3205 121.999C86.3205 121.999 86.1885 121.999 86.0564 121.999H85.9243H85.7922H85.6601C85.6601 121.999 85.528 121.999 85.3959 121.999L84.7354 122.133H84.6033H84.4712C84.4712 122.133 84.3392 122.133 84.2071 122.133C84.075 122.133 84.0749 122.133 83.9429 122.133C83.8108 122.133 83.8107 122.133 83.6786 122.133H83.5466H83.4145H83.2824L82.6219 121.999C82.6219 121.999 82.6219 121.999 82.4898 121.999C82.4898 121.999 82.4898 121.999 82.3577 121.999C82.2256 121.999 82.3577 121.999 82.2256 121.999C82.0935 121.999 81.9614 121.999 81.9614 121.999C81.8293 121.999 81.8293 122.133 81.6972 122.133C81.5651 122.268 81.5652 122.268 81.4331 122.402C81.301 122.536 81.301 122.67 81.1689 122.805C81.0368 122.939 81.0368 123.073 81.0368 123.207C81.0368 123.342 81.0368 123.342 81.0368 123.476C81.0368 123.476 81.0368 123.61 81.1689 123.61C81.1689 123.61 81.301 123.61 81.4331 123.61C81.4331 123.61 81.4331 123.61 81.5652 123.61C81.5652 123.61 81.5651 123.61 81.6972 123.61H81.8293H81.9614H82.0935H82.2256H82.3577C82.3577 123.61 82.3577 123.61 82.4898 123.61C82.6219 123.61 82.6219 123.61 82.754 123.61L82.8861 123.744C82.8861 123.744 82.8861 123.879 82.8861 124.013C82.8861 124.147 82.8861 124.281 82.754 124.281V124.416C82.754 124.416 82.754 124.55 82.6219 124.55C82.6219 124.55 82.6219 124.684 82.4898 124.684C82.4898 124.684 82.4898 124.819 82.3577 124.819L81.0368 126.698C80.9047 126.832 80.9047 126.967 80.7726 127.101C80.6405 127.235 80.6405 127.235 80.5084 127.369C80.3763 127.504 80.3763 127.504 80.3763 127.504L80.2442 127.638C80.2442 127.638 80.2442 127.638 80.1121 127.772H79.98H79.8479H79.7158L77.206 127.907H77.0739H76.9419C76.9419 127.907 76.9419 127.907 76.8098 127.907C76.8098 127.907 76.8098 127.907 76.8098 127.772V127.638V127.504L77.4702 125.221C77.4702 125.087 77.4702 125.087 77.4702 124.953C77.4702 124.819 77.4702 124.819 77.4702 124.819V124.684C77.4702 124.684 77.4702 124.684 77.4702 124.55C77.4702 124.416 77.6023 124.416 77.6023 124.281C77.6023 124.147 77.7344 124.147 77.7344 124.013C77.7344 123.879 77.8665 123.879 77.9986 123.879C78.1307 123.879 78.1307 123.879 78.2628 123.879C78.2628 123.879 78.2628 123.879 78.3949 123.879C78.3949 123.879 78.3949 123.879 78.527 123.879C78.527 123.879 78.527 123.879 78.6591 123.879H78.7912H78.9233H79.0554C79.0554 123.879 79.0554 123.879 79.1875 123.879C79.1875 123.879 79.1875 123.879 79.3196 123.879C79.4516 123.879 79.5838 123.879 79.5838 123.879C79.7159 123.879 79.7158 123.744 79.8479 123.744C79.98 123.61 79.98 123.61 80.1121 123.476C80.2442 123.342 80.2442 123.207 80.3763 123.073C80.3763 122.939 80.5084 122.805 80.5084 122.67C80.5084 122.536 80.5084 122.536 80.5084 122.402C80.5084 122.402 80.5084 122.268 80.3763 122.268C80.3763 122.268 80.2442 122.268 80.1121 122.268C80.1121 122.268 80.1121 122.268 79.98 122.268C79.8479 122.268 79.8479 122.268 79.8479 122.268H79.7158H79.5838C79.3196 122.268 79.1874 122.402 79.0554 122.402C78.9233 122.402 78.6591 122.402 78.527 122.536C78.3949 122.536 78.2628 122.536 78.1307 122.536C77.9986 122.536 77.8665 122.536 77.8665 122.536C77.7344 122.536 77.7344 122.536 77.6023 122.536C77.4703 122.536 77.4702 122.536 77.3381 122.536C77.206 122.536 77.074 122.536 76.9419 122.536C76.8098 122.536 76.6777 122.536 76.5456 122.536H76.4135H76.2814C76.4135 122.805 76.4135 122.805 76.2814 122.805Z" fill="#7B0F13"/>
<path d="M88.9634 106.291C88.6992 106.56 88.435 106.962 88.0388 107.231C87.7746 107.499 87.3783 107.902 86.982 108.305C86.5857 108.708 86.1894 108.976 85.661 109.379C85.1327 109.782 84.7364 110.185 84.208 110.587C83.6797 110.99 83.1513 111.393 82.755 111.661C82.3587 112.064 81.9624 112.333 81.5661 112.601C81.1699 112.87 80.9057 113.273 80.6415 113.541C80.3773 113.81 80.1131 114.212 79.981 114.615C79.8489 115.018 79.7168 115.287 79.7168 115.555C79.7168 115.824 79.7168 116.092 79.8489 116.361C79.981 116.629 80.1131 116.763 80.3773 116.898C80.6415 117.032 80.9057 117.032 81.1698 117.032C81.5661 117.032 81.8303 116.898 82.2266 116.763C82.4908 116.629 82.8871 116.495 83.1513 116.226C83.4154 116.092 83.8117 115.824 84.0759 115.555C84.3401 115.287 84.7364 115.018 85.0006 114.615C85.0006 114.884 85.0006 115.287 85.0006 115.421C85.0006 115.689 85.1327 115.824 85.2648 116.092C85.3969 116.226 85.529 116.361 85.7931 116.495C86.0573 116.629 86.3215 116.629 86.5857 116.629C86.982 116.629 87.2462 116.495 87.6424 116.361C88.0387 116.226 88.435 115.958 88.6992 115.689C89.0955 115.421 89.3597 115.152 89.6239 114.75C89.8881 114.481 90.1522 114.078 90.2843 113.675C90.4164 113.273 90.5485 113.004 90.5485 112.736C90.5485 112.467 90.5485 112.199 90.5485 111.796C90.5485 111.527 90.4164 111.259 90.2843 110.99C90.1522 110.722 90.0202 110.453 89.756 110.05C89.6239 109.782 89.3597 109.379 89.2276 109.111C89.0955 108.842 88.9634 108.439 88.8313 108.171C88.6992 107.902 88.6992 107.634 88.6992 107.231C88.9634 106.962 88.9634 106.694 88.9634 106.291Z" fill="#7B0F13"/>
</svg>
